<svg xmlns="http://www.w3.org/2000/svg" viewBox="0 0 195 64" role="img" aria-label="Better English Learning, Stepframe lockup, one colour">
<title>Better English Learning, Stepframe lockup, one colour</title>
<g fill="currentColor"><rect x="12" y="8" width="11" height="48" rx="2"/><path d="M23 8H30.5a10.5 10.5 0 0 1 0 21H23Z"/></g><g fill="currentColor"><path d="M23 35H41.5a10.5 10.5 0 0 1 0 21H23Z"/></g><g fill="currentColor" transform="translate(82,0)"><rect x="0" y="8" width="11" height="48" rx="2"/><path d="M11 8H19.5a11.5 11.5 0 0 1 0 23H11Z"/><path d="M11 33H23.5a11.5 11.5 0 0 1 0 23H11Z"/><rect x="44" y="8" width="11" height="48" rx="2"/><rect x="55" y="8" width="21" height="11" rx="2"/><rect x="55" y="28.5" width="19" height="10" rx="2"/><rect x="55" y="45" width="21" height="11" rx="2"/><rect x="85" y="8" width="11" height="48" rx="2"/><rect x="96" y="45" width="17" height="11" rx="2"/></g>
</svg>
